<svg width="112" height="112" viewBox="0 0 112 112" fill="none" xmlns="http://www.w3.org/2000/svg">
<path d="M0 12.8601C0 5.75768 5.75768 0 12.8601 0H99.1399C106.242 0 112 5.75768 112 12.8601V99.1399C112 106.242 106.242 112 99.1399 112H12.8601C5.75768 112 0 106.242 0 99.1399V12.8601Z" fill="#00AB8F"/>
<mask id="mask0_4104_4356" style="mask-type:alpha" maskUnits="userSpaceOnUse" x="0" y="0" width="112" height="112">
<path d="M0 12.8601C0 5.75768 5.75768 0 12.8601 0H99.1399C106.242 0 112 5.75768 112 12.8601V99.1399C112 106.242 106.242 112 99.1399 112H12.8601C5.75768 112 0 106.242 0 99.1399V12.8601Z" fill="#01AA89"/>
</mask>
<g mask="url(#mask0_4104_4356)">
<path d="M14.2737 129.541C35.2146 138.901 59.6845 129.081 70.418 105.067L32.9637 86.8721L-4.51792 72.8141C-15.2514 96.8273 -6.66716 120.18 14.2737 129.541Z" fill="#D4F1EC"/>
<path d="M82.1283 98.6556C74.094 116.63 57.5268 98.694 32.6441 87.5719C7.76137 76.4497 -16.0143 76.3533 -7.98 58.3788C0.0542955 40.4042 26.7388 34.8493 51.6215 45.9714C76.5042 57.0936 90.1626 80.6811 82.1283 98.6556Z" fill="#F3F3F3"/>
<path d="M51.3984 25.332L62.7778 29.7288C58.0261 37.1134 56.3783 42.4701 54.0983 52.1927L42.7189 47.796C42.7189 47.796 46.9303 41.8096 48.7105 37.2022C50.4907 32.5949 51.3984 25.332 51.3984 25.332Z" fill="#F3F3F3"/>
<path d="M30.5236 33.0802C27.7192 31.3207 27.3936 19.8178 33.6355 22.1049C39.8773 24.3921 75.7799 18.8928 79.162 16.997C82.544 15.1012 82.4709 23.5566 81.9264 26.7951C65.6482 38.91 34.029 35.2795 30.5236 33.0802Z" fill="#F3F3F3"/>
<path d="M75.5437 79.0877C75.5437 80.9567 73.912 82.4718 71.8993 82.4718C69.8865 82.4718 68.2549 80.9567 68.2549 79.0877C68.2549 77.2187 69.8865 75.7036 71.8993 75.7036C73.912 75.7036 75.5437 77.2187 75.5437 79.0877Z" fill="#F3F3F3"/>
</g>
</svg>
